<svg xmlns="http://www.w3.org/2000/svg" height="1200" width="1600" version="1.1" xmlns:xlink="http://www.w3.org/1999/xlink" xmlns:svgjs="http://svgjs.com/svgjs"><rect fill="#f3ebe9" width="1600" height="1200"></rect><g><path d="M147.69 1014.5C185.19 917.01 289.81 938.57 289.81 938.57 342.49 845.01 435.12 819.32 526.43 834.51 526.43 834.51 612.67 663.89 780.29 708.33 780.29 708.33 864.85 544.83 1057.03 602.02 1201.4 645.14 1231.4 821.39 1231.4 821.39 1231.4 821.39 1443.27 793.26 1482.64 1014.5H147.69Z" fill="#efdcd7" opacity="1" stroke-width="4" stroke="none"></path><path d="M447.49 832.26C384.68 839.95 327.12 872.01 289.81 938.57 289.81 938.57 185.19 917.01 147.69 1014.5H642.67C642.67 1014.5 637.05 920.76 502.05 939.51 487.05 858.88 447.49 832.26 447.49 832.26Z" fill="#ababab" opacity="0.3" stroke-width="4" stroke="none"></path><path d="M289.81 938.57C278.93 954.51 275.18 975.13 275.18 975.13" stroke="#ababab" stroke-width="4" stroke-linecap="round" stroke-linejoin="round" opacity="1" fill="none"></path><path d="M526.43 834.51C541.24 838.07 555.3 844.45 567.67 853.26" stroke="#ababab" stroke-width="4" stroke-linecap="round" stroke-linejoin="round" opacity="1" fill="none"></path><path d="M780.29 708.33C775.6 717.7 767.54 737.58 769.79 751.08" stroke="#ababab" stroke-width="4" stroke-linecap="round" stroke-linejoin="round" opacity="1" fill="none"></path><path d="M1231.4 821.39C1148.9 832.64 1103.91 890.76 1103.91 890.76" stroke="#ababab" stroke-width="4" stroke-linecap="round" stroke-linejoin="round" opacity="1" fill="none"></path></g><g><path d="M1143.57 281.02C1182.23 281.02 1213.57 249.69 1213.57 211.03 1213.57 172.37 1182.23 141.04 1143.57 141.04 1104.91 141.04 1073.58 172.37 1073.58 211.03 1073.58 249.69 1104.91 281.02 1143.57 281.02Z" fill="#ffc930" opacity="1" stroke-width="4" stroke="none"></path><path d="M1115.72 328.65C1115.72 328.65 1142.27 245.52 1191.34 236 1242.72 226.04 1253.97 285.06 1253.97 285.06 1253.97 285.06 1337.82 238.74 1341.86 328.65H1115.72Z" fill="#ffffff" opacity="1" stroke-width="4" stroke="none"></path></g><g><path d="M592.22 403.78C626.68 324.06 670.54 329.83 692.43 364.57 692.43 364.57 712.26 324.06 744.58 319.4 780.81 314.19 788.44 364.57 788.44 364.57 788.44 364.57 867.97 314.28 869.93 403.78H592.22Z" fill="#ffffff" opacity="1" stroke-width="4" stroke="none"></path></g><g><path d="M354.77 260.5L378.01 202.02C378.95 199.6 381.32 198 383.98 198 386.46 198 388.53 199.36 389.54 201.55 390.54 203.74 390.66 206.4 389.95 209.47 390.6 209.65 393.67 210.65 395.51 213.85 397.22 216.74 397.34 220.59 395.98 225.2 396.33 225.44 398.11 226.74 399.41 229.28 400.71 231.94 401.83 236.49 399.47 243.35 395.39 255.23 393.02 260.91 392.96 260.97L392.91 261.03 354.77 260.5Z" fill="#ffc930" opacity="1" stroke-width="4" stroke="none"></path><path d="M386.58 238.8C377.77 243.17 368.72 245.48 360.62 245.77L354.77 260.5 392.96 261.09 393.02 261.03C393.02 260.97 395.45 255.29 399.53 243.41 401.66 237.26 401.01 233 399.88 230.22 395.98 233.42 391.55 236.31 386.58 238.8Z" fill="#211800" opacity="0.2" stroke-width="4" stroke="none"></path><path d="M343.77 258.01H323.14C321.84 258.01 321.36 259.73 322.43 260.38L343.77 274.21V258.01 258.01Z" fill="#231f20" opacity="1" stroke-width="4" stroke="none"></path><path d="M389.95 209.53L370.32 259.2" stroke="#151207" stroke-width="4" stroke-linecap="round" stroke-linejoin="round" opacity="1" fill="none"></path><path d="M396.04 225.14L383.09 257.84" stroke="#151207" stroke-width="4" stroke-linecap="round" stroke-linejoin="round" opacity="1" fill="none"></path><path d="M382.68 293.9C370.56 293.9 359.85 285.62 354.47 280.72 352.17 278.59 349.27 277.05 346.2 276.4L339.34 274.98C333.9 273.86 330.23 268.83 330.77 263.33 331.3 257.72 335.97 253.52 341.59 253.52L445.35 253.08V253.06C456.83 252.99 449.01 263.69 446.18 267.65 443.34 271.55 438.79 273.92 434.06 273.92 432.52 273.92 430.98 273.68 429.44 273.21L423.59 271.38C422.82 271.14 422.05 271.02 421.29 271.02 419.22 271.02 417.15 271.91 415.73 273.39 414.84 274.33 413.84 275.46 412.77 276.7 406.8 283.56 397.75 293.9 382.68 293.9Z" fill="#ffffff" opacity="1" stroke-width="4" stroke="none"></path><path d="M434.71 263.45L447.06 265.11" stroke="#414141" stroke-width="4" stroke-linecap="round" stroke-linejoin="round" opacity="1" fill="none"></path><path d="M340.82 265.46C342.45 265.46 343.77 264.14 343.77 262.51 343.77 260.88 342.45 259.55 340.82 259.55 339.18 259.55 337.86 260.88 337.86 262.51 337.86 264.14 339.18 265.46 340.82 265.46Z" fill="#000000" opacity="1" stroke-width="4" stroke="none"></path><path d="M382.68 293.9C370.56 293.9 359.8 285.62 354.47 280.72 354.24 280.48 353.94 280.24 353.65 280.01L353.53 279.95 353.65 279.83C354.42 279.12 355.18 278.47 355.95 277.88 362.22 272.97 369.79 270.37 377.71 270.37 388.71 270.37 398.88 275.34 405.68 284.03L405.74 284.09 405.68 284.15C398.58 290.71 391.07 293.9 382.68 293.9Z" fill="#efdcd7" opacity="1" stroke-width="4" stroke="none"></path><path d="M384.98 278.23C377.47 278.23 370.26 275.51 364.64 270.49 362.93 269.01 361.92 266.94 361.81 264.64 361.69 262.33 362.4 260.2 363.93 258.49 364.17 258.19 364.47 257.95 364.7 257.72L413.54 215.38C414.72 214.38 416.2 213.79 417.74 213.79 419.57 213.79 421.29 214.56 422.53 215.86 423.65 217.1 424.24 218.7 424.18 220.41 424.06 222.89 422.94 225.32 420.81 227.74 421.29 228.21 423.59 230.58 423.77 234.3 423.95 237.73 422.29 241.22 418.92 244.77 419.39 245.66 423.18 253.58 413.54 262.74L405.91 269.9C400.3 275.28 392.85 278.23 384.98 278.23Z" fill="#ffc930" opacity="1" stroke-width="4" stroke="none"></path><path d="M420.81 227.8L392.67 252.34" stroke="#151207" stroke-width="4" stroke-linecap="round" stroke-linejoin="round" opacity="1" fill="none"></path><path d="M418.98 244.71L403.25 258.43" stroke="#151207" stroke-width="4" stroke-linecap="round" stroke-linejoin="round" opacity="1" fill="none"></path></g><g><path d="M600.8 1013.35L628.98 901.33 747.47 907.64 755.7 918.26 752.9 928.48C749.07 944.05 756.01 960.25 769.99 968.16L789.31 979.02C801.13 985.64 806.32 999.78 801.69 1012.47V1012.55L600.8 1013.35Z" fill="#8e4b35" opacity="1" stroke-width="4" stroke="none"></path><path d="M505.14 748.74L505.3 748.66C505.62 748.43 539.95 725.99 582.11 702.04 652.62 662.03 690.62 648.7 710.1 644.63 717.61 643.03 725.35 642.15 733.02 642.07 755.7 642.07 774.14 650.3 786.52 665.79 802.64 686.15 806.96 717.13 798.57 752.98 790.83 786.11 756.09 916.9 755.7 918.26V918.34L642.08 921.61 505.14 748.74Z" fill="#ffffff" opacity="1" stroke-width="4" stroke="none"></path><path d="M628.26 904.2L504.98 748.43 567.34 763.12C567.5 763.2 579.32 767.99 599.36 767.99 613.65 767.91 627.86 765.67 641.52 761.52 652.85 758.17 666.75 751.78 678.96 746.19 690.06 741.16 700.6 736.37 707.79 734.37 710.18 733.65 712.74 733.25 715.29 733.25 723.68 733.25 726.31 738.36 726.39 738.44L726.47 738.52 633.85 886.24C634.17 888.07 642 928.71 674.49 963.53 689.34 979.5 604.71 975.18 616.53 980.85 628.42 986.6 604.47 983.41 605.75 993.63L628.26 904.2Z" fill="#6a6a6a" opacity="0.3" stroke-width="4" stroke="none"></path><path d="M718.65 751.06L646.47 866.12" stroke="#6a6a6a" stroke-width="4" stroke-linecap="round" stroke-linejoin="round" opacity="1" fill="none"></path><path d="M282.61 1013.35C279.18 1013.35 275.91 1011.83 273.67 1009.2 271.44 1006.64 270.48 1003.21 270.96 999.94 274.39 977.26 299.06 963.13 315.35 953.79 320.38 950.91 324.29 948.68 326.53 946.76 332.2 941.89 336.35 933.51 340.82 924.64 344.73 916.74 348.81 908.67 354.39 901.57 363.26 890.31 375.87 887.99 384.82 887.99 387.53 887.99 390.25 888.23 392.96 888.71H393.04C416.83 915.46 472.25 928.48 472.8 928.56L473.04 928.64 426.73 1011.35 419.39 1013.19 282.61 1013.35Z" fill="#8e4b35" opacity="1" stroke-width="4" stroke="none"></path><path d="M419.47 1013.35L452.6 938.86C439.19 935.1 426.49 929.03 415.08 920.97 397.99 908.75 377.71 886.48 378.51 849.75 379.23 814.46 394.72 786.59 407.57 769.42 409.25 767.19 411 765.59 412.6 763.6 424.74 748.9 435.44 740.44 435.6 740.36H435.68L510.97 748.03C511.93 748.9 611.42 832.9 667.95 885.76 691.66 907.96 699.8 942.69 688.23 972.15 678.01 998.02 654.69 1013.43 625.71 1013.43L419.47 1013.35Z" fill="#ffffff" opacity="1" stroke-width="4" stroke="none"></path><path d="M689.58 920.17C685.43 907 677.93 895.18 667.87 885.76 610.7 832.34 510.97 748.11 510.97 748.11" stroke="#6a6a6a" stroke-width="4" stroke-linecap="round" stroke-linejoin="round" opacity="1" fill="none"></path><path d="M558.08 969.36L452.6 938.78" stroke="#6a6a6a" stroke-width="4" stroke-linecap="round" stroke-linejoin="round" opacity="1" fill="none"></path><path d="M568.14 980.77C564.15 980.69 560.08 980.37 556.08 979.82 542.43 977.9 529.57 975.98 515.92 973.83 501.39 971.59 473.04 963.53 473.04 963.53L444.78 956.5 452.6 938.78V938.86C452.6 938.86 452.6 938.86 452.6 938.78 452.6 938.78 452.44 938.78 452.6 938.86L579.16 975.34C579.16 975.34 580.04 976.54 579.4 977.66 578.2 979.66 574.37 980.77 568.14 980.77Z" fill="#6a6a6a" opacity="0.3" stroke-width="4" stroke="none"></path><path d="M840.49 929.59C833.3 929.59 816.38 922.33 802.72 916.5L799.61 915.14C798.17 914.9 796.66 914.74 795.22 914.74 784.28 914.02 758.57 912.43 750.43 897.97 730.86 889.83 664.51 860.13 631.06 818.61 604.07 785.15 574.45 720.72 574.13 720.08V720L609.5 599.27 615.33 601.51C622.11 611.33 627.94 621.63 632.89 632.49 646.47 661.55 693.98 769.34 694.45 770.38L791.31 849.43C797.85 849.03 814.38 847.99 828.75 847.99 836.9 847.99 843.05 848.31 847.04 848.95 849.19 849.27 850.63 851.03 850.79 853.5 851.11 857.25 848.39 862.04 841.77 864.44 841.61 864.52 841.61 864.68 841.77 864.76 846.56 866.28 867.64 872.82 874.74 875.62 878.34 876.9 880.49 880.65 879.77 884.4 879.14 887.67 876.42 889.91 872.83 890.23 873.39 890.63 873.87 891.11 874.18 891.75 875.62 894.3 875.62 897.42 874.26 900.05 873.31 901.81 871.07 903.8 866.28 903.88 867 904.84 869.23 907.96 868.44 910.99 867.88 913.07 866.12 914.66 863.25 915.78 862.53 916.02 861.73 916.1 861.01 916.02 852.31 916.02 826.04 909.39 824.12 908.91 823.96 909.07 823.96 909.31 823.96 909.55 824.2 910.99 827.87 912.99 831.63 915.14 838.17 918.81 846.24 923.29 844.08 928.08 843.6 929.11 842.41 929.59 840.49 929.59Z" fill="#8e4b35" opacity="1" stroke-width="4" stroke="none"></path><path d="M843.28 864.36C837.7 866.84 822.45 867.95 819.33 869.15 818.37 869.55 808.71 886 791.23 883.76" stroke="#010101" stroke-width="4" stroke-linecap="round" stroke-linejoin="round" opacity="1" fill="none"></path><path d="M872.83 890.23L826.6 879.05" stroke="#010101" stroke-width="4" stroke-linecap="round" stroke-linejoin="round" opacity="1" fill="none"></path><path d="M866.28 903.88L823.08 894.22" stroke="#010101" stroke-width="4" stroke-linecap="round" stroke-linejoin="round" opacity="1" fill="none"></path><path d="M827.32 867.71C827.32 877.69 824.28 892.31 819.97 901.01" stroke="#010101" stroke-width="4" stroke-linecap="round" stroke-linejoin="round" opacity="1" fill="none"></path><path d="M412.6 763.52L398.15 582.83 398.23 582.75C422.66 562.47 445.74 550.41 470.97 544.98L557.84 560.47C558.16 560.47 586.82 561.11 615.25 601.43L615.33 601.51 567.1 763.52H412.6Z" fill="#ffc930" opacity="1" stroke-width="4" stroke="none"></path><path d="M412.6 763.52L566.86 763.36" stroke="#6a6a6a" stroke-width="4" stroke-linecap="round" stroke-linejoin="round" opacity="1" fill="none"></path><path d="M412.6 763.52L406.21 683.83 408.45 684.15C408.61 684.31 423.38 700.84 450.61 717.45 486.86 739.48 528.22 751.62 570.61 752.66H570.85L567.26 763.12 412.6 763.52Z" fill="#000000" opacity="0.3" stroke-width="4" stroke="none"></path><path d="M553.61 431.12C528.94 431.12 508.89 411.08 508.89 386.41 508.89 361.74 528.94 341.7 553.61 341.7 578.28 341.7 598.32 361.74 598.32 386.41 598.4 411.08 578.36 431.12 553.61 431.12Z" fill="#010101" opacity="1" stroke-width="4" stroke="none"></path><path d="M540.03 601.67C534.6 601.67 528.78 599.83 522.87 596.16 495.56 578.6 488.37 546.02 488.29 545.7V545.62 545.54C495.72 525.5 513.45 483.58 523.03 461.62 532.29 440.7 552.49 426.65 573.25 426.65 579.72 426.65 586.1 427.93 592.01 430.48 623.47 443.5 639.36 470.88 643.27 489.97 643.59 491.8 639.28 507.29 634.01 521.43 631.62 527.81 629.38 533.88 628.42 538.51L627.94 540.83C624.83 555.04 621 572.69 608.7 580.67 603.91 583.63 598.32 585.22 592.73 585.14 583.23 585.14 573.33 581.31 565.42 574.6L559.6 591.77C559.44 591.93 552.57 601.67 540.03 601.67Z" fill="#8e4b35" opacity="1" stroke-width="4" stroke="none"></path><path d="M553.77 560.63C561.91 570.85 565.42 574.6 565.42 574.6L561.19 587.14 553.29 560.87C553.21 560.63 553.53 560.47 553.77 560.63Z" fill="#010101" opacity="0.3" stroke-width="4" stroke="none"></path><path d="M565.42 574.6C561.11 569.73 557.52 565.98 553.77 560.63" stroke="#010101" stroke-width="4" stroke-linecap="round" stroke-linejoin="round" opacity="1" fill="none"></path><path d="M554.49 523.74L547.54 512.56" stroke="#010101" stroke-width="4" stroke-linecap="round" stroke-linejoin="round" opacity="1" fill="none"></path><path d="M609.34 527.33L609.18 530.61C609.1 532.44 607.98 534.04 606.31 534.68L605.91 534.76" stroke="#010101" stroke-width="4" stroke-linecap="round" stroke-linejoin="round" opacity="1" fill="none"></path><path d="M605.03 548.41C602.63 548.97 596.88 547.14 594.65 541.79" stroke="#010101" stroke-width="4" stroke-linecap="round" stroke-linejoin="round" opacity="1" fill="none"></path><path d="M596.36 518.5C597.81 517.21 597.93 514.99 596.64 513.55 595.34 512.1 593.12 511.98 591.68 513.27 590.23 514.57 590.1 516.79 591.4 518.23 592.69 519.68 594.92 519.8 596.36 518.5Z" fill="#010101" opacity="1" stroke-width="4" stroke="none"></path><path d="M625.44 525.09C626.89 523.8 627.01 521.58 625.72 520.13 624.42 518.69 622.2 518.57 620.76 519.86 619.31 521.15 619.18 523.37 620.48 524.82 621.77 526.26 623.99 526.38 625.44 525.09Z" fill="#010101" opacity="1" stroke-width="4" stroke="none"></path><path d="M273.11 992.03C277.42 996.82 286.53 998.26 286.53 998.26" stroke="#010101" stroke-width="4" stroke-linecap="round" stroke-linejoin="round" opacity="1" fill="none"></path><path d="M279.18 981.49C282.29 985.48 292.12 987.8 292.12 987.8" stroke="#010101" stroke-width="4" stroke-linecap="round" stroke-linejoin="round" opacity="1" fill="none"></path><path d="M603.83 788.27L701.4 794.97 703.64 811.42 562.79 834.5 603.83 788.27Z" fill="#fe4f32" opacity="1" stroke-width="4" stroke="none"></path><path d="M603.83 788.27L562.79 834.5 606.7 827.31 616.53 789.15 603.83 788.27Z" fill="#030000" opacity="0.3" stroke-width="4" stroke="none"></path><path d="M504.1 734.21L493.64 730.78 527.5 626.98C531.97 613.41 546.5 605.98 560.08 610.45L592.49 620.99C606.07 625.46 613.49 640 609.02 653.57L588.58 716.33 578.12 712.89 598.56 650.14C601.12 642.31 596.8 634.01 589.06 631.45L556.64 620.91C548.82 618.36 540.51 622.67 537.96 630.41L504.1 734.21Z" fill="#fe4f32" opacity="1" stroke-width="4" stroke="none"></path><path d="M510.33 679.6L493.64 730.78 504.1 734.21 521.03 682.31 510.33 679.6Z" fill="#030000" opacity="0.3" stroke-width="4" stroke="none"></path><path d="M448.37 741.8L602.07 674.57 665.63 729.26 530.45 876.9 448.37 741.8Z" fill="#fe4f32" opacity="1" stroke-width="4" stroke="none"></path><path d="M594.01 698.84L465.14 769.34" stroke="#fefbfb" stroke-width="4" stroke-linecap="round" stroke-linejoin="round" opacity="1" fill="none"></path><path d="M616.53 707.31L487.18 805.12" stroke="#fefbfb" stroke-width="4" stroke-linecap="round" stroke-linejoin="round" opacity="1" fill="none"></path><path d="M637.29 722.08L512.41 846.87" stroke="#fefbfb" stroke-width="4" stroke-linecap="round" stroke-linejoin="round" opacity="1" fill="none"></path><path d="M602.07 674.57L588.82 680.32C584.19 688.3 581.71 700.04 594.89 712.02 622.83 737.25 662.04 729.98 665.47 729.34 665.55 729.34 665.55 729.26 665.47 729.18L602.07 674.57Z" fill="#231f20" opacity="1" stroke-width="4" stroke="none"></path><path d="M701.4 795.29L703.56 811.34C703.56 811.42 703.56 811.42 703.48 811.42 700.6 811.42 690.14 801.84 701.08 795.13 701.24 795.05 701.4 795.13 701.4 795.29Z" fill="#231f20" opacity="1" stroke-width="4" stroke="none"></path><path d="M611.58 788.43L570.85 833.14" stroke="#030000" stroke-width="4" stroke-linecap="round" stroke-linejoin="round" opacity="1" fill="none"></path><path d="M510.89 714.33L497.96 720" stroke="#030000" stroke-width="4" stroke-linecap="round" stroke-linejoin="round" opacity="1" fill="none"></path><path d="M346.73 770.86C340.58 770.94 334.43 769.98 328.53 768.23 314.79 763.92 305.61 754.73 301.94 741.72 294.51 715.37 310.24 676.48 344.02 637.68 355.35 624.75 365.41 614.05 374.6 604.78 382.98 596.4 390.56 589.13 398.15 582.83L398.39 582.67 410.77 659.96C414.2 658.2 462.11 634.33 478.39 630.17 479.99 629.78 481.59 629.38 483.18 629.06 483.9 628.9 484.62 628.74 485.5 628.66 493.48 627.22 501.55 626.5 509.69 626.58 519.43 626.58 529.18 627.38 538.76 628.98 545.7 630.25 551.85 631.45 557.44 633.93 558.64 634.41 559.12 635.68 558.88 637.28 558.4 640.16 554.89 644.55 547.3 645.27 554.01 647.66 572.69 654.53 576.92 657 580.04 658.84 581.47 661.47 580.76 664.19 579.96 667.14 576.84 669.14 573.01 669.14 572.69 669.14 572.45 669.14 572.13 669.14 565.82 668.66 550.41 664.75 548.34 664.19 549.22 669.86 546.98 673.21 544.9 675.05 543.55 676.25 541.95 677.12 540.19 677.6 541.15 681.52 540.75 684.71 538.92 687.1 536.28 690.7 531.33 691.34 530.29 691.42 531.65 697.88 529.65 701.72 524.22 703.23 522.71 703.55 521.11 703.71 519.59 703.71 507.94 703.71 485.58 697.96 483.98 697.56 469.45 710.82 453.96 723.11 437.75 734.21 413.24 750.9 377.55 770.86 346.73 770.86Z" fill="#8e4b35" opacity="1" stroke-width="4" stroke="none"></path><path d="M354.47 691.82C380.26 675.37 410.77 659.96 410.77 659.96" stroke="#010101" stroke-width="4" stroke-linecap="round" stroke-linejoin="round" opacity="1" fill="none"></path><path d="M548.18 664.03L526.54 656.76" stroke="#010101" stroke-width="4" stroke-linecap="round" stroke-linejoin="round" opacity="1" fill="none"></path><path d="M540.27 677.76L520.63 672.49" stroke="#010101" stroke-width="4" stroke-linecap="round" stroke-linejoin="round" opacity="1" fill="none"></path><path d="M530.45 691.58L514.08 687.58" stroke="#010101" stroke-width="4" stroke-linecap="round" stroke-linejoin="round" opacity="1" fill="none"></path><path d="M547.3 645.27C547.3 645.27 536.28 641.35 522.55 636.4" stroke="#010101" stroke-width="4" stroke-linecap="round" stroke-linejoin="round" opacity="1" fill="none"></path><path d="M694.21 770.46L677.05 782.84" stroke="#010101" stroke-width="4" stroke-linecap="round" stroke-linejoin="round" opacity="1" fill="none"></path><path d="M374.52 604.7C357.27 586.82 349.36 558.87 353.84 531.65 358.31 504.66 374.36 482.14 397.91 470.01 412.36 462.58 428.33 458.75 444.54 458.91 472.49 458.91 494.76 469.61 499.39 472 499.87 472.24 500.35 472.08 500.67 471.68 503.47 468.01 515.28 452.6 526.7 439.82 537.56 427.61 552.89 420.9 569.98 420.9 578.52 420.9 586.98 422.66 594.81 425.93 622.51 437.35 639.2 454.68 643.27 475.91 643.99 480.55 643.99 485.26 643.27 489.89V489.97H643.19C643.11 490.05 640.96 491.4 636.89 491.4 631.06 491.4 621.64 488.45 609.42 474.8 608.86 474.16 607.74 474.48 607.58 475.36 606.62 485.02 601.12 492.52 594.49 492.52 591.37 492.52 586.58 490.85 581.23 483.66 580.68 482.86 579.4 483.26 579.4 484.22 579.24 487.41 578.52 491.01 577.32 494.44 575.33 500.11 572.37 504.58 569.02 506.89L568.86 506.97 568.78 506.81C566.78 503.22 564.39 499.79 561.67 496.67 557.68 492.04 551.37 486.61 544.27 486.61 540.59 486.69 537.08 488.05 534.29 490.37L534.21 490.45C529.02 495.24 523.91 504.34 528.7 520.15 530.61 526.22 533.33 531.89 536.84 537.16V537.24C537 545.86 535.48 554.4 532.29 562.39 527.5 574.04 516.64 588.26 492.05 589.77 490.69 589.85 489.25 589.93 487.9 589.93 454.84 589.93 438.47 564.7 435.36 559.35 435.12 558.87 434.48 558.71 434 558.95 406.45 572.69 375.07 604.54 374.76 604.86H374.52V604.7 604.7Z" fill="#010101" opacity="1" stroke-width="4" stroke="none"></path><path d="M540.35 428.89C552.49 421.86 566.78 419.7 580.36 421.94" stroke="#010101" stroke-width="4" stroke-linecap="round" stroke-linejoin="round" opacity="1" fill="none"></path><path d="M500.19 472.64L488.37 488.69" stroke="#010101" stroke-width="4" stroke-linecap="round" stroke-linejoin="round" opacity="1" fill="none"></path><path d="M434.96 558.15C429.53 549.69 427.13 532.92 427.13 532.92" stroke="#010101" stroke-width="4" stroke-linecap="round" stroke-linejoin="round" opacity="1" fill="none"></path></g><g><path d="M801.21 952.86L857.46 917.73 857.31 917.44C821.45 846.01 780.1 790.64 761.16 788.76 759.72 788.61 758.12 788.76 756.82 789.48 740.49 797.72 759.72 869.58 799.77 949.68 800.2 950.55 800.63 951.42 801.21 952.43V952.86 952.86Z" fill="#fe4f32" opacity="1" stroke-width="4" stroke="none"></path><path d="M801.21 952.86L857.46 917.73 857.31 917.44C852.83 908.77 848.06 899.51 843.14 890.4L843 890.26 842.71 890.4C834.18 894.02 824.78 895.46 815.53 894.6 798.03 892.86 780.68 882.31 763.91 863.51L763.47 863.8C773.6 893.15 785.74 921.92 799.62 949.68 800.05 950.55 800.49 951.42 801.07 952.43L801.21 952.86Z" fill="#a34c3d" opacity="0.2" stroke-width="4" stroke="none"></path><path d="M1051.35 1013.88V1013.59C1051.35 973.97 1019.1 941.73 979.49 941.88 939.87 941.88 907.77 973.97 907.77 1013.59V1013.88H1051.35Z" fill="#61ccff" opacity="1" stroke-width="4" stroke="none"></path><path d="M1013.32 1013.88V1013.59C1013.32 1013.45 1014.77 999.13 996.55 986.84 993.08 984.67 989.46 982.65 985.7 980.91 973.85 975.27 960.4 968.91 953.61 946.94L953.46 946.65 953.17 946.79C925.7 957.49 907.63 983.95 907.77 1013.45V1013.73L1013.32 1013.88Z" fill="#9fa0a0" opacity="0.2" stroke-width="4" stroke="none"></path><path d="M999.19 865.69C976.1 855.92 961.05 839.35 965.56 828.68 970.07 818.02 992.46 817.3 1015.55 827.07 1038.64 836.85 1053.7 853.42 1049.18 864.09 1044.67 874.74 1022.28 875.47 999.19 865.69Z" fill="#ffc930" opacity="1" stroke-width="4" stroke="none"></path><path d="M1051.64 815.51C1053.95 826.93 1035.88 840.09 1011.3 845 1009.85 845.29 1008.55 845.58 1007.1 845.73 1007.97 846.88 1008.69 848.04 1009.42 849.2 1023.01 870.31 1026.04 892.43 1016.21 898.64 1006.38 904.86 987.58 892.86 974.14 871.9 963 854.55 958.96 836.62 963.29 827.22 967.05 817.68 982.81 807.99 1002.91 803.94 1027.49 798.88 1049.32 804.08 1051.64 815.51Z" fill="#ffc930" opacity="1" stroke-width="4" stroke="none"></path><path d="M1034 837.19C1026.77 840.81 1019.25 843.41 1011.3 845 1009.85 845.29 1008.55 845.58 1007.1 845.73 1007.97 846.88 1008.69 848.04 1009.42 849.2 1013.9 856.14 1017.51 863.65 1019.83 871.61" stroke="#211800" stroke-width="4" stroke-linecap="round" stroke-linejoin="round" opacity="1" fill="none"></path><path d="M963.44 827.22C907.19 825.92 880.59 881.73 897.8 966.17" stroke="#a34c3d" stroke-width="4" stroke-linecap="round" stroke-linejoin="round" opacity="1" fill="none"></path><path d="M897.94 781.23C886.91 777.68 884.19 755.46 891.87 731.59 899.54 707.72 914.7 691.23 925.73 694.78 936.75 698.32 939.47 720.54 931.79 744.41 924.11 768.28 908.96 784.77 897.94 781.23Z" fill="#ffc930" opacity="1" stroke-width="4" stroke="none"></path><path d="M877.26 696.66C888.4 693.33 903.14 710.1 910.23 734.1 910.66 735.41 910.95 736.85 911.39 738.15 912.4 737.29 913.56 736.42 914.71 735.55 934.52 720.22 956.21 715.16 963.44 724.27 970.52 733.38 960.26 753.33 940.45 768.66 924.25 781.24 906.62 786.88 896.93 783.41 887.1 780.52 875.96 765.77 870.18 745.96 862.95 722.1 866.13 699.98 877.26 696.66Z" fill="#ffc930" opacity="1" stroke-width="4" stroke="none"></path><path d="M900.54 712.27C904.74 719.07 908.06 726.44 910.23 734.1 910.66 735.41 910.95 736.85 911.39 738.15 912.4 737.29 913.56 736.42 914.71 735.55 921.22 730.49 928.45 726.3 936.11 723.12" stroke="#211800" stroke-width="4" stroke-linecap="round" stroke-linejoin="round" opacity="1" fill="none"></path><path d="M896.78 783.55C888.83 805.1 875.53 854.83 876.83 949.39" stroke="#a34c3d" stroke-width="4" stroke-linecap="round" stroke-linejoin="round" opacity="1" fill="none"></path><path d="M958.38 1013.88V1013.59C958.38 956.19 911.82 909.78 854.42 909.78 797.16 909.78 750.61 956.33 750.61 1013.59V1013.88H958.38Z" fill="#61ccff" opacity="1" stroke-width="4" stroke="none"></path><path d="M958.38 1013.88V1013.59C958.38 991.47 951.44 970.79 939.58 954.02" stroke="#686868" stroke-width="4" stroke-linecap="round" stroke-linejoin="round" opacity="1" fill="none"></path><path d="M851.96 1013.88V1013.59C851.96 1013.3 849.79 991.9 818.71 987.85 787.62 983.81 775.33 972.53 774.9 947.8V946.94L774.46 947.51C758.99 966.02 750.46 989.44 750.61 1013.59V1013.88H851.96V1013.88Z" fill="#9fa0a0" opacity="0.2" stroke-width="4" stroke="none"></path></g><g><path d="M1070 1014.37L1089.79 764.17C1091.65 739.98 1105.86 718.33 1127.35 706.99L1178.61 679.75C1213.29 661.31 1256.42 674.51 1274.86 709.19 1279.09 717.14 1281.8 725.77 1282.81 734.73L1313.77 1014.37H1070Z" fill="#fe4f32" opacity="1" stroke-width="4" stroke="none"></path><path d="M1145.96 1014.2L1115.84 898.32C1109.08 872.44 1120.92 845.37 1144.43 832.68L1177.59 814.75C1207.53 798.51 1228.51 769.75 1234.77 736.26L1245.26 679.42C1266.24 690.41 1280.28 711.05 1282.65 734.57L1313.6 1014.2H1145.96Z" fill="#b41900" opacity="0.2" stroke-width="4" stroke="none"></path><path d="M1396.67 1014.36V937.21C1396.67 903.04 1374.34 872.76 1341.69 862.44L1264.04 838.25C1234.77 829.11 1203.64 845.52 1194.51 874.62 1193.83 876.65 1193.32 878.68 1192.98 880.71L1167.44 1014.19 1396.67 1014.36Z" fill="#fe4f32" opacity="1" stroke-width="4" stroke="none"></path><path d="M1294.83 847.89L1264.21 838.25C1234.94 829.11 1203.81 845.52 1194.68 874.62 1194 876.65 1193.49 878.68 1193.15 880.71L1167.61 1014.19" stroke="#000000" stroke-width="4" stroke-linecap="round" stroke-linejoin="round" opacity="1" fill="none"></path><path d="M1396.67 1014.37V937.23C1396.67 922.85 1392.78 908.81 1385.33 896.63L1312.76 922.01C1274.52 935.37 1251.35 974.28 1257.61 1014.37H1396.67Z" fill="#b41900" opacity="0.2" stroke-width="4" stroke="none"></path></g><g><path d="M418.22 1013.89C419.98 992.7 436.75 978.58 451.76 976.81 467.91 974.87 481.24 982.55 481.24 982.55 481.24 982.55 499.42 936.21 542.94 943.01 590.43 950.42 606.23 1013.89 606.23 1013.89H418.22Z" fill="#61ccff" opacity="1" stroke-width="4" stroke="none"></path><path d="M606.23 1013.89H495.01C503.84 988.29 530.32 994.47 530.32 994.47 530.32 994.47 534.55 959.95 564.21 950.86 595.19 969.93 606.23 1013.89 606.23 1013.89Z" fill="#14b3ff" opacity="0.3" stroke-width="4" stroke="none"></path><path d="M481.33 982.55C486.71 985.2 491.13 992.26 491.13 992.26" stroke="#1d6688" stroke-width="4" stroke-linecap="round" stroke-linejoin="round" opacity="1" fill="none"></path></g></svg>